<?xml version="1.0" encoding="UTF-8" standalone="no"?>
<!-- Generator: Adobe Illustrator 19.0.1, SVG Export Plug-In . SVG Version: 6.00 Build 0)  -->

<svg
   xmlns:dc="http://purl.org/dc/elements/1.1/"
   xmlns:cc="http://creativecommons.org/ns#"
   xmlns:rdf="http://www.w3.org/1999/02/22-rdf-syntax-ns#"
   xmlns:svg="http://www.w3.org/2000/svg"
   xmlns="http://www.w3.org/2000/svg"
   xmlns:sodipodi="http://sodipodi.sourceforge.net/DTD/sodipodi-0.dtd"
   xmlns:inkscape="http://www.inkscape.org/namespaces/inkscape"
   version="1.1"
   id="Layer_1"
   x="0px"
   y="0px"
   width="100px"
   height="100px"
   viewBox="0 0 100 100"
   style="enable-background:new 0 0 100 100;"
   xml:space="preserve"
   sodipodi:docname="icn-siren-no-alert-panel.svg"
   inkscape:version="0.92.4 (33fec40, 2019-01-16)"><metadata
   id="metadata4631"><rdf:RDF><cc:Work
       rdf:about=""><dc:format>image/svg+xml</dc:format><dc:type
         rdf:resource="http://purl.org/dc/dcmitype/StillImage" /><dc:title></dc:title></cc:Work></rdf:RDF></metadata><defs
   id="defs4629" /><sodipodi:namedview
   pagecolor="#ffffff"
   bordercolor="#666666"
   borderopacity="1"
   objecttolerance="10"
   gridtolerance="10"
   guidetolerance="10"
   inkscape:pageopacity="0"
   inkscape:pageshadow="2"
   inkscape:window-width="1307"
   inkscape:window-height="713"
   id="namedview4627"
   showgrid="false"
   inkscape:zoom="5.45"
   inkscape:cx="50"
   inkscape:cy="50"
   inkscape:window-x="59"
   inkscape:window-y="27"
   inkscape:window-maximized="1"
   inkscape:current-layer="Layer_1" />
<style
   type="text/css"
   id="style4598">
	.st0{fill:#F16222;}
	.st1{fill:#FAAD18;}
	.st2{fill:#F68C1E;}
	.st3{fill:#4D4D4D;}
	.st4{fill:#EBBD1D;}
	.st5{fill:#009A5E;}
	.st6{fill:#90B83E;}
	.st7{fill:#C4C02F;}
	.st8{fill:#47A848;}
</style>

<path
   id="path5652"
   d="M 87.429387,37.286289 H 76.792319 C 75.513425,32.342796 73.005732,27.896482 69.595095,24.293784 l 5.66709,-7.876627 c 0.800331,-1.111503 0.547275,-2.661311 -0.564227,-3.460429 -1.112712,-0.80033 -2.6601,-0.546065 -3.460431,0.564227 l -5.363183,7.454363 C 61.518538,17.68909 56.249343,15.565975 50.505214,15.086199 V 5.0502857 c 0,-1.3694006 -1.11029,-2.4796926 -2.479692,-2.4796926 -1.369401,0 -2.479693,1.110292 -2.479693,2.4796926 V 15.085291 c -5.818286,0.48265 -11.156194,2.653443 -15.54984,6.015799 l -5.453687,-7.580135 c -0.801543,-1.111502 -2.350139,-1.36819 -3.460431,-0.564227 -1.111502,0.799118 -1.364557,2.348926 -0.564227,3.460429 l 5.780603,8.034484 c -3.338748,3.575 -5.798613,7.961985 -7.061163,12.834648 H 8.3504424 c -1.3694015,0 -2.4796936,1.110292 -2.4796936,2.479693 0,1.3694 1.1102921,2.479692 2.4796936,2.479692 H 18.383026 c -0.0678,0.816829 -0.125473,1.636833 -0.125473,2.470612 v 25.021376 c 0.808202,-0.136359 1.632898,-0.223842 2.479239,-0.223842 h 54.553237 c 0.846642,0 1.671643,0.08748 2.480147,0.223991 V 44.716286 c 0,-0.833779 -0.0575,-1.653783 -0.125175,-2.470612 h 9.784373 c 1.369401,0 2.479693,-1.110292 2.479693,-2.479692 0,-1.369401 -1.110292,-2.479693 -2.479695,-2.479693 z M 43.066136,32.326904 c -4.102145,0 -7.439077,3.33693 -7.439077,7.439078 0,1.3694 -1.11029,2.479692 -2.479693,2.479692 -1.3694,0 -2.479693,-1.110292 -2.479693,-2.479692 0,-6.836106 5.56236,-12.398463 12.398463,-12.398463 1.369403,0 2.479693,1.110292 2.479693,2.479692 0,1.369401 -1.11029,2.479693 -2.479693,2.479693 z"
   inkscape:connector-curvature="0"
   style="fill:#999999;stroke-width:0.99999994" /><path
   id="path5656"
   d="M 75.290488,74.472598 H 20.737251 c -5.455202,0 -9.918771,4.463417 -9.918771,9.91877 0,5.480175 4.463569,9.91877 9.918771,9.91877 h 54.553237 c 5.480175,0 9.91877,-4.438595 9.91877,-9.91877 0,-5.455353 -4.438595,-9.91877 -9.91877,-9.91877 z"
   inkscape:connector-curvature="0"
   style="stroke-width:0.99999994;fill:#4d4d4d" /></svg>